<?xml version="1.0" standalone="no"?>
<!DOCTYPE svg PUBLIC "-//W3C//DTD SVG 20010904//EN"
 "http://www.w3.org/TR/2001/REC-SVG-20010904/DTD/svg10.dtd">
<svg version="1.0" xmlns="http://www.w3.org/2000/svg"
 width="1136.000000pt" height="1136.000000pt" viewBox="0 0 1136.000000 1136.000000"
 preserveAspectRatio="xMidYMid meet">
<metadata>
Created by potrace 1.14, written by Peter Selinger 2001-2017
</metadata>
<g transform="translate(0.000000,1136.000000) scale(0.100000,-0.100000)"
fill="#000000" stroke="none">
<path d="M705 11228 c3 -73 7 -187 10 -253 5 -121 11 -275 20 -505 3 -69 7
-179 10 -245 3 -66 7 -183 10 -260 3 -77 7 -189 10 -250 8 -207 15 -370 20
-515 3 -80 8 -194 10 -255 9 -200 15 -358 20 -500 3 -77 7 -192 10 -255 2 -63
7 -178 10 -255 3 -77 8 -192 10 -255 12 -298 13 -326 30 -760 2 -41 6 -151 9
-245 4 -93 9 -208 11 -255 2 -47 7 -164 10 -260 3 -96 8 -211 10 -255 2 -44 7
-152 10 -240 3 -88 8 -209 10 -270 2 -60 7 -175 10 -255 3 -80 8 -197 11 -260
2 -63 7 -173 9 -245 8 -222 14 -338 20 -395 3 -30 7 -80 10 -111 2 -31 6 -69
9 -85 3 -16 8 -51 11 -79 34 -299 175 -826 295 -1100 5 -11 23 -54 41 -95 41
-97 170 -356 203 -409 14 -22 26 -43 26 -45 0 -2 34 -60 76 -128 269 -432 595
-805 984 -1127 151 -125 143 -118 205 -161 28 -19 52 -37 55 -40 3 -3 52 -37
110 -76 306 -206 719 -412 1049 -524 189 -64 514 -150 661 -175 125 -21 230
-37 260 -40 19 -3 53 -7 75 -9 22 -3 72 -8 110 -11 39 -3 93 -8 120 -11 64 -6
674 -5 780 1 44 2 105 7 135 10 30 3 75 8 99 10 131 13 420 62 532 91 53 13
105 25 115 27 11 2 39 9 64 16 25 8 50 14 55 16 6 1 17 4 25 7 8 3 74 24 145
47 212 69 360 130 580 237 196 96 504 273 513 296 2 4 8 8 13 8 11 0 237 160
275 195 6 6 26 21 44 35 18 14 38 30 44 35 6 6 38 32 71 60 86 72 134 116 259
240 184 184 286 301 440 505 47 63 89 120 94 125 25 32 165 257 219 350 90
155 212 406 277 568 70 174 178 505 201 615 2 9 9 40 15 67 6 28 13 59 16 70
2 11 8 43 14 70 15 74 18 88 26 142 3 26 8 57 10 68 4 20 6 31 24 175 12 104
20 204 25 345 3 66 7 172 10 235 2 63 7 176 10 250 7 183 14 358 20 520 8 207
13 332 20 490 3 80 8 195 10 255 3 61 7 173 10 250 6 159 12 323 20 505 3 69
7 190 10 270 3 80 8 186 10 235 2 50 7 158 10 240 3 83 8 202 10 265 5 108 8
185 20 505 3 72 7 184 10 250 3 66 7 181 10 255 3 74 7 189 10 255 5 127 13
331 20 505 2 58 7 166 10 240 3 74 7 191 10 260 5 121 9 237 20 500 3 69 7
184 10 255 3 72 7 185 11 253 l5 122 -4985 0 -4985 0 4 -132z"/>
</g>
</svg>
